<?xml version="1.0" encoding="UTF-8" standalone="no"?>
<!-- Created with Inkscape (http://www.inkscape.org/) -->

<svg
   xmlns:dc="http://purl.org/dc/elements/1.1/"
   xmlns:cc="http://creativecommons.org/ns#"
   xmlns:rdf="http://www.w3.org/1999/02/22-rdf-syntax-ns#"
   xmlns:svg="http://www.w3.org/2000/svg"
   xmlns="http://www.w3.org/2000/svg"
   xmlns:sodipodi="http://sodipodi.sourceforge.net/DTD/sodipodi-0.dtd"
   xmlns:inkscape="http://www.inkscape.org/namespaces/inkscape"
   id="svg4190"
   version="1.1"
   inkscape:version="0.91 r13725"
   width="398.9711"
   height="122.17527"
   viewBox="0 0 398.9711 122.17527"
   sodipodi:docname="dsglLogo.svg">
  <metadata
     id="metadata4196">
    <rdf:RDF>
      <cc:Work
         rdf:about="">
        <dc:format>image/svg+xml</dc:format>
        <dc:type
           rdf:resource="http://purl.org/dc/dcmitype/StillImage" />
        <dc:title></dc:title>
      </cc:Work>
    </rdf:RDF>
  </metadata>
  <defs
     id="defs4194" />
  <sodipodi:namedview
     pagecolor="#ffffff"
     bordercolor="#666666"
     borderopacity="1"
     objecttolerance="10"
     gridtolerance="10"
     guidetolerance="10"
     inkscape:pageopacity="0"
     inkscape:pageshadow="2"
     inkscape:window-width="1680"
     inkscape:window-height="1050"
     id="namedview4192"
     showgrid="false"
     fit-margin-top="5"
     fit-margin-left="5"
     fit-margin-right="5"
     fit-margin-bottom="5"
     inkscape:zoom="1.2316197"
     inkscape:cx="245.45711"
     inkscape:cy="69.012903"
     inkscape:window-x="0"
     inkscape:window-y="0"
     inkscape:window-maximized="0"
     inkscape:current-layer="svg4190" />
  <path
     style="fill:#000000"
     d="m 5.8464897,115.98071 c -0.6648795,-0.71284 -0.8586408,-1.59924 -0.8459084,-3.86973 0.00906,-1.61978 0.1847869,-3.09351 0.3904962,-3.27493 0.354751,-0.31293 2.1709457,-0.68712 8.0445845,-1.65743 1.419963,-0.23459 3.04559,-0.63967 3.61251,-0.90021 0.566917,-0.26054 1.254297,-0.35059 1.527506,-0.20011 0.273219,0.15048 0.397055,0.12686 0.275186,-0.0524 -0.121863,-0.17937 0.626049,-0.30587 1.662041,-0.28113 1.035986,0.0248 2.722087,-0.23975 3.746891,-0.58783 1.024809,-0.34805 2.278258,-0.61311 2.785445,-0.58901 1.565534,0.0743 8.069505,-0.89258 9.168602,-1.36315 1.112398,-0.47625 5.055083,-1.07364 6.514133,-0.98701 0.485529,0.0292 1.108416,-0.0648 1.384116,-0.20778 0.27569,-0.14308 1.333683,-0.40439 2.351068,-0.58068 1.017396,-0.17626 2.904635,-0.64499 4.193867,-1.04156 1.28923,-0.396578 3.589446,-0.904908 5.111597,-1.129648 1.522141,-0.22473 3.078874,-0.45449 3.459393,-0.51058 0.380538,-0.0562 2.125213,-0.33053 3.877076,-0.60985 1.751862,-0.27931 3.459782,-0.41009 3.795359,-0.29062 0.335587,0.11947 1.015112,-0.0255 1.51008,-0.32216 0.804167,-0.48199 5.624517,-1.42823 5.591701,-1.09766 -0.0074,0.0733 0.563828,-0.0141 1.26914,-0.1942 0.705285,-0.18004 2.700779,-0.36485 4.434402,-0.41072 2.274727,-0.0602 3.339286,-0.25213 3.824792,-0.68954 0.479688,-0.43217 1.303029,-0.58556 2.869076,-0.53451 1.352114,0.044 2.812573,-0.1753 3.799493,-0.57073 1.848785,-0.74077 8.027504,-1.6634 11.019894,-1.64555 1.12421,0.007 2.15553,-0.081 2.29182,-0.19486 0.1363,-0.11388 1.5155,-0.61545 3.06489,-1.11464 2.68226,-0.86414 7.02961,-1.479 9.53638,-1.34873 0.63846,0.0332 1.44657,-0.16742 1.79579,-0.44579 0.3492,-0.27838 1.06524,-0.43994 1.59116,-0.35908 0.52593,0.0809 1.58844,-0.18104 2.36113,-0.58203 1.10668,-0.57432 1.81164,-0.67649 3.3211,-0.48128 1.2626,0.16326 2.10482,0.0975 2.46912,-0.19295 0.30411,-0.24239 1.01109,-0.41691 1.5711,-0.38781 0.55999,0.0293 1.91181,-0.1368 3.004,-0.36873 1.09219,-0.23192 2.20595,-0.37595 2.47501,-0.32009 0.26907,0.0558 0.96307,-0.0674 1.54221,-0.27393 0.57912,-0.20648 1.97919,-0.38035 3.11122,-0.38636 1.49969,-0.008 2.3743,-0.23693 3.22293,-0.8438 1.23021,-0.87973 2.92436,-0.80253 3.29783,0.15029 0.28919,0.73783 0.95199,0.61607 1.60501,-0.29486 0.53231,-0.74253 0.83541,-0.80297 3.16876,-0.63187 1.87493,0.1375 2.95582,0.027 3.95462,-0.40428 0.75596,-0.32643 1.92506,-0.52186 2.59798,-0.43425 0.67294,0.0876 1.70476,-0.0618 2.29298,-0.3322 0.5882,-0.27032 1.40367,-0.47413 1.81216,-0.45291 0.40854,0.021 1.29102,-0.24592 1.96111,-0.59366 0.77535,-0.40237 1.90304,-0.59672 3.10127,-0.53445 1.21056,0.0629 2.62898,-0.18537 3.97242,-0.69532 1.73958,-0.66033 2.5232,-0.74957 4.67878,-0.53281 1.67009,0.16795 2.76461,0.11899 3.08325,-0.13767 0.27171,-0.2189 1.35723,-0.41527 2.41226,-0.43638 1.05506,-0.021 2.19603,-0.18315 2.53547,-0.3601 0.33949,-0.17694 1.5178,-0.37952 2.61851,-0.45019 1.10069,-0.0707 2.45186,-0.28985 3.00258,-0.48702 0.55072,-0.19722 1.17878,-0.3087 1.3957,-0.24773 0.21694,0.0609 1.5005,-0.24619 2.85235,-0.68257 2.03278,-0.65618 2.61887,-0.71597 3.38857,-0.3453 0.5982,0.28778 1.89926,0.41448 3.64185,0.35469 2.12002,-0.0728 2.87582,-0.25767 3.46638,-0.84823 0.63737,-0.63738 1.03073,-0.71219 2.52123,-0.47937 1.50914,0.23572 2.04525,0.12788 3.68557,-0.74265 1.35537,-0.71915 2.18412,-0.93858 2.81973,-0.74655 0.49508,0.1496 1.71803,0.14846 2.71763,-0.002 0.9996,-0.15092 2.99831,-0.27691 4.44161,-0.27993 1.54498,-0.003 3.00565,-0.22159 3.5518,-0.53092 0.51551,-0.29199 1.49122,-0.45032 2.19613,-0.35636 0.75625,0.10085 1.66276,-0.0673 2.24489,-0.41612 0.53702,-0.32187 1.18254,-0.47169 1.43449,-0.33291 0.25193,0.13875 0.47636,0.0681 0.49875,-0.15738 0.0268,-0.27068 0.49399,-0.31533 1.37655,-0.1316 0.75357,0.15688 1.35044,0.13131 1.36936,-0.0593 0.0185,-0.18554 0.23697,-0.32679 0.48566,-0.31387 0.24868,0.0131 0.42385,0.37418 0.38925,0.80278 -0.0567,0.70243 -7.4e-4,0.72535 0.5676,0.23224 0.34681,-0.30089 1.42247,-0.61856 2.39039,-0.70599 0.96791,-0.0875 2.1677,-0.4293 2.66622,-0.75977 0.49851,-0.33047 1.00981,-0.5897 1.1362,-0.57608 0.12639,0.0135 1.0051,-0.0822 1.9527,-0.2126 4.82145,-0.66424 6.27417,-0.74975 7.89066,-0.46446 1.23911,0.21866 2.10028,0.16687 2.89697,-0.1742 1.49362,-0.63943 6.22912,-1.30594 8.45642,-1.19018 0.97352,0.0506 2.18734,-0.1127 2.6974,-0.36282 0.83229,-0.40815 1.00141,-0.37261 1.64941,0.34656 l 0.722,0.80135 0.95787,-0.75275 c 1.26511,-0.99415 2.93092,-1.2254 6.38624,-0.88652 2.69682,0.26453 2.83646,0.24105 2.62562,-0.44174 -0.16834,-0.54511 0.0406,-0.78202 0.85626,-0.97074 0.59345,-0.1373 1.34892,-0.1182 1.67886,0.0423 0.32993,0.16063 1.35006,0.18547 2.26699,0.0553 0.91692,-0.13027 2.89423,-0.21029 4.39405,-0.17784 1.54442,0.0334 3.33795,-0.1655 4.136,-0.4587 1.22113,-0.44869 4.88154,-0.80661 9.63206,-0.94179 0.75204,-0.0214 1.99392,-0.19132 2.75973,-0.37758 0.7658,-0.18625 2.04355,-0.20978 2.83935,-0.0517 0.81471,0.16161 1.90808,0.12858 2.50227,-0.0756 0.58042,-0.19942 3.20022,-0.29298 5.82181,-0.20779 4.95955,0.16108 6.15162,0.11845 11.86868,-0.42444 1.89263,-0.1797 4.07839,-0.34644 4.85722,-0.37048 0.77884,-0.024 1.65591,-0.14012 1.94906,-0.25802 0.29316,-0.11787 1.76386,-0.21956 3.26826,-0.22597 1.50439,-0.007 3.10624,-0.13873 3.55968,-0.29406 1.16493,-0.39905 6.75988,-1.03276 10.74139,-1.21663 1.85437,-0.0857 4.50697,-0.26147 5.89466,-0.39075 1.38767,-0.12923 3.84956,-0.20599 5.47085,-0.17054 1.62131,0.0355 3.3713,-0.0809 3.88889,-0.25855 1.00783,-0.34591 3.89874,-0.51671 9.37211,-0.55372 1.87604,-0.0126 3.83515,-0.17528 4.35358,-0.36135 1.39871,-0.50199 15.2038,0.36202 15.62238,0.97776 0.37536,0.55213 -0.46148,1.31842 -1.3873,1.27032 -0.35893,-0.0186 -1.11593,0.13334 -1.68222,0.33775 -0.56631,0.20441 -3.59939,0.50472 -6.74019,0.66738 -3.14079,0.16263 -6.22889,0.36664 -6.86243,0.45335 -0.63353,0.0867 -2.68643,0.16403 -4.562,0.17182 -1.87555,0.008 -4.23891,0.12186 -5.25185,0.25348 -1.01296,0.13159 -2.76511,0.26965 -3.89366,0.30671 -1.12856,0.0372 -3.09044,0.2276 -4.35972,0.42334 -1.26931,0.19574 -3.26426,0.29196 -4.43323,0.21377 -1.16896,-0.0783 -2.40418,0.003 -2.7449,0.18065 -0.34073,0.17757 -2.0258,0.34524 -3.74461,0.37258 -1.71883,0.0274 -3.37059,0.1843 -3.67059,0.34876 -0.3,0.16441 -1.97779,0.3057 -3.72842,0.31396 -2.91116,0.0137 -5.01456,0.15237 -5.03236,0.33161 -0.005,0.039 -0.52068,0.0945 -1.14841,0.12266 -2.28056,0.10343 -8.01002,1.13252 -8.75456,1.57245 -0.41992,0.24812 -1.27665,0.47785 -1.90386,0.51052 -1.34121,0.0699 -2.78377,1.78653 -3.37692,4.01858 -0.2111,0.79439 -0.67759,1.66949 -1.03662,1.94467 -0.35905,0.27515 -0.82828,0.92159 -1.0427,1.43648 -0.34716,0.83354 -0.5999,0.92785 -2.3053,0.86012 -6.99197,-0.27766 -15.59886,-0.31966 -17.82162,-0.087 -1.59597,0.16698 -3.29843,0.49357 -3.72952,0.71521 -0.59763,0.30727 -3.0922,0.47037 -6.83926,0.44715 -3.32124,-0.0205 -9.2514,0.39731 -10.52703,0.7418 -1.22717,0.33141 -6.32939,0.64947 -6.75245,0.42096 -0.3708,-0.2003 -4.41197,0.16255 -7.90362,0.70963 -1.26962,0.1989 -3.59738,0.39904 -5.17281,0.4447 -1.71372,0.0497 -3.3213,0.32014 -4.00173,0.67325 -0.6384,0.33131 -1.86117,0.5526 -2.78744,0.50447 -1.85553,-0.0964 -5.75218,0.34864 -6.39136,0.72998 -0.23064,0.13761 -1.0957,0.12957 -1.92233,-0.0179 -1.68807,-0.30106 -4.04662,0.18318 -4.95888,1.01814 -0.43985,0.40257 -1.91293,0.60661 -5.39643,0.74746 -2.63528,0.10656 -5.21121,0.30206 -5.7243,0.43442 -0.51309,0.13238 -1.44894,0.28831 -2.07964,0.34652 -0.63069,0.058 -2.39426,0.31115 -3.91902,0.56221 -1.52475,0.25102 -4.24799,0.37508 -6.05164,0.2758 -2.5818,-0.14221 -3.38421,-0.0638 -3.77234,0.36855 -0.27116,0.30202 -0.48725,0.42845 -0.48019,0.28092 0.006,-0.14757 -0.4677,-0.0633 -1.05499,0.18696 -0.5873,0.25034 -2.45629,0.55091 -4.15332,0.66793 -1.69702,0.11702 -3.6048,0.36167 -4.23945,0.54369 -0.92712,0.26588 -1.37089,0.20458 -2.25779,-0.31194 -1.27701,-0.74366 -2.00382,-0.59745 -1.77637,0.3574 0.13599,0.57086 -0.14438,0.66869 -1.96239,0.68477 -1.16657,0.0103 -2.33316,-0.0981 -2.59243,-0.24071 -0.41661,-0.22946 -2.49961,0.40287 -3.16675,0.96132 -0.84567,0.70793 -3.77205,1.26049 -5.83331,1.10141 -1.65806,-0.128 -2.50139,-0.0277 -2.98097,0.35469 -0.97138,0.77432 -2.37812,1.00467 -3.7724,0.61779 -0.67124,-0.18626 -1.23294,-0.2127 -1.24823,-0.0588 -0.0521,0.52486 -2.76101,0.9838 -4.0735,0.6901 -0.98969,-0.22148 -1.74493,-0.0991 -3.09637,0.50144 -2.09341,0.93037 -4.58655,1.34743 -6.42863,1.0754 -0.72531,-0.10713 -2.12885,0.0733 -3.14427,0.4041 -1.0088,0.32866 -2.27307,0.54788 -2.80951,0.48714 -0.53645,-0.0608 -1.13157,-0.0817 -1.32254,-0.0464 -0.19098,0.035 -0.50202,0.0778 -0.69116,0.0948 -0.18914,0.0167 -0.56636,0.12351 -0.8382,0.23667 -0.27184,0.11319 -1.30775,0.24723 -2.30205,0.29791 -0.99429,0.0507 -2.63938,0.22802 -3.65576,0.39422 -1.01638,0.16612 -2.76672,0.28588 -3.88964,0.26625 -1.12291,-0.0198 -2.52276,0.13222 -3.11076,0.3377 -0.588,0.20548 -1.26014,0.26836 -1.49364,0.13972 -0.42995,-0.23679 -2.68016,0.10871 -5.36511,0.82376 -0.80909,0.21548 -1.88489,0.37028 -2.39065,0.344 -1.3531,-0.0703 -2.89534,0.37993 -4.47912,1.30766 -1.35965,0.79642 -2.26963,0.95014 -4.26328,0.72017 -0.62134,-0.0718 -1.06435,0.13003 -1.26447,0.575798 -0.2068,0.46059 -0.68479,0.66655 -1.45411,0.62657 -0.63035,-0.0328 -1.28729,0.0896 -1.45987,0.27194 -0.53413,0.56423 -1.05804,0.3309 -1.25848,-0.56047 -0.18483,-0.821938 -0.2428,-0.836628 -1.59975,-0.405468 -0.7744,0.246048 -1.42231,0.591688 -1.43982,0.768058 -0.0175,0.17637 -0.43879,0.29951 -0.93616,0.27367 -0.49735,-0.0259 -0.9223,0.0694 -0.9443,0.21177 -0.0217,0.14227 -0.56812,0.51148 -1.21363,0.82032 -0.89588,0.42867 -1.37277,0.46577 -2.01493,0.15683 -0.6104,-0.29365 -1.01698,-0.29304 -1.4814,0.002 -0.35204,0.22384 -1.58417,0.64589 -2.73802,0.93792 -1.15387,0.29204 -2.62658,0.70555 -3.2727,0.91892 -0.646122,0.21337 -2.757249,0.4178 -4.691384,0.45429 -2.083176,0.0393 -3.747895,0.25069 -4.083972,0.51857 -0.31203,0.24873 -1.157919,0.42154 -1.879741,0.38404 -0.721841,-0.0375 -2.480381,0.17864 -3.907876,0.48036 -1.792521,0.37885 -3.186284,0.4549 -4.505381,0.24582 -1.29994,-0.20605 -2.851299,-0.12794 -4.857466,0.24456 -1.621154,0.30101 -3.458441,0.54319 -4.082888,0.53815 -3.657649,-0.0294 -4.606426,0.10347 -5.908947,0.82817 -1.33418,0.7423 -4.035199,1.07092 -8.363632,1.01754 -0.62417,-0.008 -1.441841,0.25789 -1.817041,0.59016 -0.535924,0.4746 -1.019256,0.53727 -2.254249,0.2923 -1.088374,-0.21587 -1.699872,-0.17692 -1.987456,0.12665 -0.261298,0.27582 -1.386808,0.39887 -3.034403,0.33178 -3.674766,-0.14968 -4.293779,-0.11763 -4.070454,0.21091 0.107733,0.15844 -0.625496,0.21812 -1.629385,0.13263 -1.395692,-0.11891 -2.05267,0.0177 -2.791629,0.58052 -0.600125,0.45702 -1.285244,0.65396 -1.807731,0.51959 -0.503833,-0.12959 -1.845268,0.21586 -3.343943,0.86115 -1.376439,0.59262 -3.27621,1.14444 -4.221719,1.22621 -0.945521,0.0819 -1.733876,0.29735 -1.751915,0.47902 -0.01804,0.18169 -0.394467,0.31155 -0.836509,0.28859 -0.442031,-0.0233 -1.225701,0.14514 -1.741446,0.37355 -0.856575,0.37938 -3.296378,0.80304 -6.230601,1.08193 -0.630848,0.0596 -1.978013,0.23857 -2.993628,0.39697 -1.015612,0.15837 -2.665663,0.32963 -3.666764,0.38039 -1.001119,0.0507 -2.064472,0.22652 -2.363003,0.39028 -0.29853,0.16375 -1.54194,0.20519 -2.7631285,0.0921 C 7.1873717,116.95 6.5230666,116.70664 5.846486,115.9812 Z M 122.84836,97.290622 c -0.10176,-0.24442 -0.22377,-0.0552 -0.271,0.42066 -0.0473,0.47576 0.0361,0.67573 0.18512,0.44436 0.14905,-0.23136 0.1877,-0.62063 0.0858,-0.86502 z"
     id="path4200"
     inkscape:connector-curvature="0"
     sodipodi:nodetypes="cscscscccscccssscscsscsccsccssccsscscccccsscccccsssscccsccscscscccsssssscscscssccssssscssssccscccccccccssscssscsccscccssssccsscscsccscssssccscccsscccccccscssccscscscccscccccccccsssccscssscccssscscsccssscssscccccccscccccssccssccs" />
  <path
     style="fill:#000000"
     d="m 71.995195,87.13221 c -0.40802,-0.39114 -0.58095,-0.80824 -0.38432,-0.92685 0.19665,-0.11862 0.1324,-0.23146 -0.14264,-0.25076 -0.60546,-0.0422 -0.31533,-7.9091 0.38281,-10.3809 0.42988,-1.52199 0.64639,-1.73681 1.83861,-1.82432 0.8303,-0.0606 1.94111,-0.61196 2.88097,-1.42911 0.84128,-0.73143 2.33239,-1.64905 3.31359,-2.03914 0.98121,-0.3901 2.11004,-1.13375 2.50851,-1.65258 0.39848,-0.5188 1.1803,-1.01335 1.73739,-1.09898 0.55708,-0.0857 1.94305,-0.71543 3.07991,-1.39958 1.136872,-0.68413 2.339482,-1.22477 2.672472,-1.20142 0.33298,0.0233 1.03873,-0.24698 1.56832,-0.60074 0.5296,-0.35375 1.3854,-0.70888 1.90178,-0.78917 0.51639,-0.0803 1.60879,-0.5501 2.42756,-1.04403 1.22085,-0.73649 1.45525,-1.10226 1.30288,-2.03302 -0.22627,-1.38221 1.21395,-7.470484 1.88958,-7.987824 0.26727,-0.20466 0.69759,-1.08617 0.95627,-1.95893 0.258663,-0.87277 1.085573,-2.75856 1.837543,-4.19066 3.0837,-5.872816 3.5697,-6.917615 4.70244,-10.10905 0.44564,-1.255605 1.08334,-2.626651 1.41709,-3.046763 0.47688,-0.60025 0.43832,-0.925428 -0.18002,-1.518194 -0.43278,-0.414883 -1.12446,-0.686421 -1.53706,-0.603422 -0.41258,0.08303 -1.27171,-0.09891 -1.90918,-0.40424 -1.03721,-0.496818 -1.24777,-0.47879 -2.00356,0.17157 -0.58329,0.501949 -1.35728,0.690799 -2.502053,0.610504 -1.60866,-0.112828 -8.47994,1.659865 -8.89777,2.295496 -0.1106,0.168276 -0.72446,0.269256 -1.36407,0.224392 -0.63963,-0.04488 -1.3217,0.0724 -1.515692,0.260499 -0.19398,0.188134 -1.51683,0.673385 -2.93964,1.078338 -2.60653,0.74184 -6.3739,2.558631 -5.99197,2.88959 0.45794,0.396807 -1.31958,1.048418 -2.09732,0.768858 -0.52759,-0.189646 -0.72767,-0.151476 -0.5492,0.104737 0.26061,0.374174 -0.74002,0.766905 -1.76992,0.694672 -0.24527,-0.01716 -0.96081,-0.717348 -1.59011,-1.555876 -1.02846,-1.370383 -1.08771,-1.739661 -0.58575,-3.650877 0.50115,-1.908093 0.7866,-2.256989 2.78183,-3.399996 1.22288,-0.700552 2.26536,-1.270778 2.31662,-1.267182 0.0513,0.0039 1.6976,-0.609857 3.65852,-1.363217 1.96091,-0.753368 3.77471,-1.355068 4.03064,-1.337118 0.4353,0.03054 5.975252,-1.990019 6.567542,-2.395332 0.14848,-0.101621 1.98102,-0.468126 4.07229,-0.814461 2.09126,-0.346334 4.500833,-0.865145 5.354593,-1.152923 0.85375,-0.287771 2.36772,-0.466634 3.36435,-0.397467 1.20269,0.08365 2.3305,-0.135256 3.35377,-0.650493 1.16469,-0.58645 1.66916,-0.665765 2.06311,-0.324386 0.39398,0.341379 1.11256,0.06831 2.93883,-1.1167 l 2.41733,-1.568565 2.16333,0.604343 c 2.1088,0.5891 4.84212,0.699416 10.22213,0.412538 1.2742,-0.06792 2.7288,-0.06856 3.2324,-0.0013 3.48197,0.464535 9.76675,1.359369 9.96526,1.418867 2.15857,0.646926 5.16419,2.64527 5.07958,3.377241 -0.0227,0.196838 0.4965,0.823948 1.15387,1.393581 1.18699,1.028553 1.18994,1.061744 0.42684,4.815784 -0.70362,3.461614 -1.37299,5.349844 -3.34504,9.436214 -0.6819,1.413007 -2.59594,3.959393 -4.57109,6.081238 -0.51896,0.55753 -1.45442,1.6258 -2.07875,2.37392 -0.62434,0.74813 -1.75105,1.76249 -2.50378,2.25413 -0.75274,0.49164 -1.24786,0.90237 -1.10028,0.91272 0.74328,0.0522 -5.10777,3.758726 -9.65886,6.118784 -1.47314,0.76391 -2.78491,1.72479 -2.91509,2.13528 -0.13907,0.43847 -0.91949,0.92115 -1.89208,1.17016 -1.08425,0.27759 -1.89175,0.81675 -2.34032,1.56262 -0.45091,0.74977 -0.96052,1.08847 -1.49178,0.99148 -1.24931,-0.22806 -3.12026,0.50719 -3.20733,1.26043 -0.0895,0.77399 -3.38782,4.09318 -4.02319,4.04861 -0.23076,-0.016 -0.8444,0.22424 -1.36367,0.53429 -0.51928,0.31004 -2.00289,1.04575 -3.29689,1.6349 -1.29402,0.58915 -3.11051,1.51464 -4.036623,2.05662 -0.92612,0.542 -3.01695,1.69104 -4.64627,2.55347 -1.62933,0.86244 -2.98552,1.76798 -3.01377,2.01231 -0.0282,0.24433 -0.72769,0.77299 -1.55436,1.1748 -0.82665,0.40183 -2.08175,1.21644 -2.789112,1.81025 -0.70735,0.59382 -1.53024,1.06255 -1.82864,1.04161 -0.29837,-0.0214 -1.81758,0.68243 -3.37594,1.56303 -1.55834,0.88059 -3.03008,1.58726 -3.27055,1.5704 -0.24041,-0.0173 -0.45578,0.13002 -0.47847,0.3264 -0.0883,0.76445 -3.96723,2.60145 -5.29619,2.50823 -0.44019,-0.0309 -1.13418,-0.37617 -1.5422,-0.76732 z M 108.83608,55.576052 c 0.55633,0.199968 0.95813,0.036 1.34821,-0.550356 0.30564,-0.45937 1.15152,-1.06351 1.87972,-1.34252 0.7282,-0.27901 1.35146,-0.74488 1.38503,-1.03526 0.0336,-0.29038 0.50719,-0.57998 1.05246,-0.64357 0.54529,-0.0635 1.15987,-0.41027 1.36574,-0.77041 0.20586,-0.36015 0.57789,-0.64052 0.82672,-0.62307 0.54365,0.0381 9.87066,-5.59341 11.03863,-6.664983 0.45209,-0.414782 1.23829,-0.818885 1.7471,-0.897994 0.50882,-0.07911 1.19737,-0.584352 1.53012,-1.122749 0.62896,-1.017664 1.77862,-1.970132 3.7863,-3.136888 1.38589,-0.805392 5.26861,-5.601514 5.39085,-6.65901 0.11288,-0.976092 -1.99409,-1.761767 -8.67634,-3.235428 l -5.31463,-1.172057 -0.9104,0.691978 c -0.69526,0.528457 -1.66048,0.685103 -4.08462,0.66289 -4.25887,-0.03903 -4.94284,0.416273 -5.72468,3.810726 -0.33656,1.461232 -0.85655,3.125581 -1.15552,3.698546 -0.75579,1.448365 -1.62893,3.784497 -1.55265,4.154167 0.035,0.169365 -0.21543,0.799748 -0.55637,1.400825 -1.65658,2.920417 -6.01134,13.001283 -6.13611,14.204511 -0.0373,0.36204 0.27281,0.27795 0.95616,-0.2591 0.6606,-0.519178 1.2868,-0.696258 1.80428,-0.510248 z M 137.5753,77.54293 c -1.11648,-1.29645 -1.099,-4.63209 0.0344,-6.57534 0.0528,-0.0906 0.19406,-1.01268 0.31384,-2.049 0.18888,-1.63405 0.50956,-2.12531 2.4154,-3.70016 1.20867,-0.99878 2.44992,-1.96025 2.75832,-2.1366 0.30838,-0.17635 0.96434,-0.57578 1.45767,-0.88765 0.49332,-0.31185 1.17285,-0.54767 1.51006,-0.52402 1.0237,0.0719 4.37859,-1.89751 4.30999,-2.52995 -0.0424,-0.39092 0.35934,-0.60434 1.18321,-0.6286 1.18909,-0.035 3.09307,-0.94675 3.15845,-1.51246 0.0434,-0.37493 5.49798,-3.315234 6.09859,-3.287434 0.27204,0.0126 1.45878,-0.63708 2.63723,-1.44375 1.17842,-0.80665 2.42722,-1.44668 2.77505,-1.42228 0.34786,0.0244 0.65213,-0.12579 0.67616,-0.33378 0.0241,-0.20798 0.30783,-0.24309 0.63062,-0.0781 0.3228,0.16507 0.44293,0.16176 0.26698,-0.008 -0.46211,-0.44413 0.6915,-1.58171 1.54341,-1.52194 1.11757,0.0784 0.92657,-0.5751 -0.27979,-0.95727 -0.59364,-0.18806 -2.5193,-0.46776 -4.27926,-0.62155 -2.47241,-0.21606 -3.76226,-0.54957 -5.67336,-1.46693 -1.48588,-0.71325 -2.44555,-1.42843 -2.40361,-1.791234 0.0384,-0.33216 -0.0717,-0.726506 -0.24454,-0.876319 -0.48237,-0.417993 0.72421,-9.001395 1.36629,-9.71964 0.3114,-0.348328 0.74728,-1.187555 0.96861,-1.864958 0.72505,-2.219044 1.36915,-3.51524 1.82866,-3.680067 0.24848,-0.08914 0.47871,-0.394966 0.51161,-0.679658 0.11765,-1.017783 7.74124,-6.451918 8.93406,-6.36825 0.29097,0.02034 0.89462,-0.278419 1.34145,-0.664066 2.71623,-2.344316 10.93275,-6.05562 11.78042,-5.321085 0.12867,0.111456 0.25867,-0.01162 0.28893,-0.273442 0.0303,-0.261849 0.17839,-0.369204 0.32916,-0.238565 0.15076,0.13064 0.78796,-0.05811 1.41602,-0.419938 0.62806,-0.361606 2.60448,-1.211241 4.39209,-1.888085 1.78759,-0.676852 3.26452,-1.354565 3.28203,-1.506041 0.0175,-0.151484 0.52702,-0.352406 1.13223,-0.446505 0.60521,-0.09408 1.58264,-0.4414158 2.17206,-0.7718178 0.58941,-0.330394 1.76494,-0.55209 2.61231,-0.492661 1.1349,0.0796 1.85681,-0.149858 2.7411,-0.872133 1.0426,-0.85134 7.77074,-3.070065 9.03983,-2.981049 0.24852,0.01743 0.84196,0.464009 1.31871,0.992395 0.47676,0.528385 1.12816,0.979231 1.44756,1.001873 1.7629,0.125013 -1.33252,5.6692968 -3.96413,7.1003318 -0.58404,0.317592 -1.07891,0.72469 -1.09971,0.904667 -0.054,0.467369 -1.66507,1.380774 -2.48712,1.410091 -0.38243,0.0136 -2.22344,0.885029 -4.0911,1.936424 -1.86764,1.051394 -4.47939,2.214722 -5.80386,2.585164 -1.32446,0.370446 -2.69245,0.914205 -3.03995,1.208349 -0.34749,0.294148 -1.53296,0.587214 -2.63433,0.651253 -1.10142,0.06408 -2.22873,0.13725 -2.50518,0.162753 -1.05892,0.0975 -1.80359,0.545894 -2.65729,1.600022 -0.49288,0.608578 -1.97737,1.490395 -3.35134,1.990755 -1.35661,0.494026 -2.9298,1.1531 -3.49601,1.464604 -0.56619,0.311512 -1.19744,0.554594 -1.40279,0.54019 -0.20534,-0.01446 -0.71546,0.393287 -1.1336,0.90598 -0.41815,0.512693 -1.20956,0.962205 -1.75872,0.998921 -0.54911,0.0364 -1.61055,0.522229 -2.35864,1.078918 -0.74809,0.556689 -1.81054,1.292131 -2.36098,1.634302 -0.81972,0.50954 -0.88537,0.688343 -0.36283,0.987941 0.35088,0.201196 1.14452,0.316135 1.7636,0.255424 0.61909,-0.06071 1.49936,0.06741 1.95616,0.284694 0.45681,0.217291 2.15344,0.837943 3.77028,1.379238 1.63111,0.546082 3.51011,1.500226 4.2211,2.143467 1.32297,1.196924 1.36207,1.533736 1.13198,9.750537 -0.0598,2.13339 -1.93154,6.19457 -3.50352,7.601456 -0.8821,0.789468 -1.62304,1.601768 -1.64655,1.805108 -0.0585,0.50593 -6.0099,3.83147 -6.77797,3.78741 -0.33961,-0.0195 -0.63673,0.13104 -0.66025,0.33451 -0.0235,0.20347 -1.1667,0.9737 -2.5404,1.71161 -1.37372,0.73793 -3.58949,2.00002 -4.92393,2.80468 -1.33447,0.80465 -4.20936,2.36961 -6.38868,3.47769 -2.17932,1.10807 -4.53562,2.35411 -5.23625,2.76903 -0.70062,0.41489 -1.47817,0.74002 -1.72788,0.72251 -0.24976,-0.0171 -2.32665,1.13267 -4.61542,2.55596 -4.10323,2.55164 -5.29614,2.94261 -6.10666,2.00142 z m 93.03014,-10.509779 c -1.368,-0.456001 -1.32705,-4.626829 1.6813,-8.936624 1.04007,-1.49003 0.99019,-4.122879 1.14105,-4.607651 0.41878,-1.34576 0.24282,-1.639348 0.27525,-1.919888 0.0757,-0.65453 -1.56296,-0.219152 -1.98388,0.408478 -0.41515,0.61903 -5.91094,2.44068 -7.85098,2.60229 -1.91259,0.1593 -4.6702,0.660336 -6.42755,1.167744 -0.75102,0.21684 -1.77525,0.36613 -2.27605,0.33173 -0.50082,-0.0345 -1.68685,0.21163 -2.63561,0.5467 -2.28506,0.80703 -6.96478,1.22659 -12.14618,1.08895 -5.59462,-0.14861 -7.71492,-0.69412 -9.59374,-2.468258 l -1.50938,-1.425286 0.85558,-5.56886 c 0.67264,-4.378154 1.06711,-5.806427 1.84496,-6.679915 0.54418,-0.611073 0.87429,-1.276347 0.73356,-1.478381 -0.14071,-0.202036 -0.0115,-0.350157 0.28816,-0.329181 0.29921,0.02104 0.52144,-0.165906 0.49385,-0.415315 -0.0276,-0.249401 0.5196,-1.196353 1.21598,-2.104319 0.69636,-0.907972 1.29245,-1.878551 1.32462,-2.156856 0.0321,-0.278298 0.22852,-0.494068 0.43635,-0.479493 0.20781,0.0146 0.92888,-1.89132 1.95322,-2.831898 2.23489,-2.052151 2.32523,-2.895881 6.99837,-5.778335 2.00874,-1.239032 3.52841,-2.430615 3.37703,-2.647957 -0.15136,-0.217351 -0.0967,-0.344228 0.12144,-0.281943 0.21826,0.06226 1.5582,-0.254423 1.5582,-0.254423 0.66608,0.07225 1.14777,-0.250252 1.13118,-0.106736 -0.0508,0.439707 2.51322,-0.494386 4.14457,-2.022993 0.84605,-0.792763 4.47947,-1.858429 5.79372,-2.368144 1.31423,-0.509721 2.4134,-1.133289 2.44258,-1.385703 0.0605,-0.52342 4.42247,-2.758925 5.26759,-2.699645 0.30631,0.02144 1.6422,-0.606115 2.9687,-1.394671 1.32649,-0.788548 2.89099,-1.508226 3.47667,-1.599289 0.58567,-0.09106 2.69864,-1.165347 4.6955,-2.3873048 1.99685,-1.221957 2.42584,-1.8129824 3.45796,-1.6144165 1.05004,0.2020132 1.22699,1.1636136 1.88508,1.8435306 0.95155,0.9830917 -0.60418,1.7803367 -0.90854,2.7787177 -0.49807,1.633842 -1.65441,7.086953 -3.43706,8.541539 -1.77561,1.448839 -5.00449,1.531485 -5.56114,1.492444 -0.23694,-0.0167 -0.63166,0.159133 -0.87711,0.390554 -0.63305,0.596861 -4.20057,2.132984 -4.84818,2.087568 -0.29792,-0.02082 -0.70711,0.20872 -0.90934,0.510274 -0.20222,0.301542 -3.19447,0.610679 -4.54432,1.388671 -4.49593,2.59131 -5.30749,2.680791 -5.34229,2.950927 -0.0193,0.147149 -0.23296,0.253631 -0.47557,0.236618 -0.61692,-0.04326 -3.30903,1.551499 -4.48238,2.655286 -0.53858,0.506666 -1.27689,0.900331 -1.64068,0.874819 -0.36381,-0.02552 -1.35105,0.553168 -2.19389,1.285966 -0.84284,0.732797 -1.72897,1.318572 -1.96919,1.301727 -0.24022,-0.01688 -0.72283,0.336396 -1.07248,0.784985 -0.34966,0.448596 -1.17531,0.950601 -1.8348,1.115562 -0.65951,0.164977 -1.63488,1.52051 -2.16747,2.135172 -0.53262,0.614657 -0.55853,2.19175 -0.7593,2.276652 -0.20075,0.08488 -0.53304,0.507055 -0.7384,0.938102 -0.34505,0.724303 -0.19971,0.799785 1.91763,0.995461 4.02074,0.371593 6.00196,0.372353 6.04473,0.0023 0.0158,-0.136732 0.52698,-0.203429 1.136,-0.148235 0.60897,0.05519 2.03335,-0.168143 3.16528,-0.49627 1.13192,-0.328166 3.36741,-0.792925 4.96775,-1.03279 1.60034,-0.239875 2.92247,-0.534544 2.93802,-0.65484 0.015,-0.12033 1.06029,-0.167685 2.32157,-0.105309 1.42952,0.07068 2.46593,-0.0704 2.75176,-0.374595 0.25217,-0.268375 1.39078,-0.718197 2.53021,-0.999599 1.13944,-0.281398 4.97287,-0.4887 4.97287,-0.4887 -0.0796,0.122698 0.78919,1.03675 1.84968,-3.268864 0.78945,-3.205178 -9.83863,0.583525 -8.43237,-2.085143 1.89595,-3.597934 3.13332,-5.650917 4.22327,-5.922248 1.04662,-0.260545 7.38032,-3.336363 8.087,-2.17188 0,0 5.82263,1.532577 7.36259,2.287712 1.98053,0.971167 1.91238,3.197673 -0.2337,5.593173 -0.90444,1.009551 -0.17141,4.326855 -0.58183,6.141285 -0.30539,1.350088 -2.05159,3.110402 -2.22374,5.050414 -0.25054,2.823608 -0.26214,5.955126 -1.20524,7.402755 -0.27202,0.20547 -0.95812,2.690995 -1.89676,4.406965 -0.93867,1.71597 -1.77533,3.534561 -1.50903,3.826895 0,0 -0.45012,1.942756 -0.7456,2.336756 -0.2955,0.39401 -0.9781,0.98043 -1.51694,1.30319 -0.53883,0.32273 -1.74307,1.3832 -2.67608,2.35659 l -0.83518,2.487479 -3.78894,-2.234053 z M 257.2898,61.96602 c -0.42927,3.434092 -4.32401,-0.994219 -5.73826,-1.98094 l -1.38046,-0.96314 0.46492,-4.022144 c 1.02136,-8.836119 2.02606,-12.250007 4.90576,-16.669268 0.74023,-1.135948 2.24432,-3.504185 3.34242,-5.262737 1.09815,-1.758553 2.1996,-3.270191 2.44771,-3.35919 0.24812,-0.08904 0.50442,-0.622891 0.56956,-1.186429 0.0652,-0.563546 0.46738,-1.235126 0.89386,-1.492407 0.63385,-0.382384 1.25338,-1.272242 1.83798,-2.639986 0.0411,-0.09611 0.35729,-0.559878 0.70271,-1.030602 0.92827,-1.265006 2.67179,-4.644451 2.75137,-5.332954 0.0381,-0.329081 0.30746,-0.862885 0.59874,-1.186231 0.29129,-0.323346 1.08621,-1.303806 1.76652,-2.178793 1.90383,-2.448689 3.89335,-2.367447 4.25166,0.173621 0.17708,1.255798 -3.35107,10.434264 -4.98608,12.971286 -0.48829,0.757661 -0.92505,1.614807 -0.97057,1.90475 -0.082,0.522683 -2.15972,3.77855 -3.13431,4.911684 -0.27884,0.324218 -0.54307,0.90155 -0.58716,1.282961 -0.044,0.381411 -0.42195,0.899669 -0.83971,1.151679 -0.41774,0.252019 -1.07864,1.095592 -1.46864,1.874611 -0.39001,0.779029 -0.95969,1.45813 -1.26596,1.509134 -0.30626,0.05101 -0.84389,0.876237 -1.19473,1.833869 -0.35083,0.957637 -0.91703,2.428386 -1.25824,3.268342 -0.52495,1.29242 -0.48924,1.64077 0.23237,2.26606 0.72797,0.63081 1.61492,0.79233 6.06445,1.10442 2.86647,0.20105 5.64562,0.2338 6.17588,0.0728 0.53027,-0.16103 1.9013,-0.31207 3.04672,-0.33566 1.14544,-0.0236 2.46116,-0.15187 2.92382,-0.28511 0.46268,-0.13321 1.85272,-0.28149 3.08902,-0.32953 1.23629,-0.0481 4.32647,-0.64723 6.86705,-1.33154 2.54058,-0.6843 5.40815,-1.29369 6.37241,-1.35422 1.62982,-0.10233 -0.21318,-0.01247 5.70827,-1.395046 1.26489,-0.295332 3.29654,-1.64396 4.99335,-1.919279 l 2.69359,-0.437053 c 5.32248,2.038473 2.26793,0.543475 5.32248,0.890218 2.51868,-0.360801 5.76665,-0.377778 7.09108,-0.03715 2.99756,0.771039 3.22455,2.376851 1.29817,9.183295 -1.5204,5.37204 -3.65887,6.78378 -5.46356,3.60685 -0.64439,-1.13436 -3.7196,0.750217 -5.85133,1.179467 -3.6879,-0.48597 -4.42841,-0.817091 -7.31801,0.146737 -1.1256,0.27336 -2.16323,0.20143 -3.5463,0.33636 -1.38308,0.13489 -2.23954,0.47909 -2.69831,0.64887 -4.51925,1.672487 -4.82573,1.454115 -6.21677,1.356555 -0.54005,-0.0379 -1.29922,0.11791 -1.68702,0.34622 -0.69872,0.41135 -8.79298,1.79841 -10.00053,1.71371 -0.34535,-0.0242 -2.26358,0.23016 -4.26274,0.56531 -1.99916,0.33515 -4.64585,0.64433 -5.88153,0.68706 -5.38469,0.18621 -10.43257,-2.089108 -10.66164,-0.25654 z"
     id="path4200-3"
     inkscape:connector-curvature="0"
     sodipodi:nodetypes="cccscssscsscssssssssssccssscsssscssscsssssccsscssssssssssssscssssccsssscscscscscscsscssssssscsssscscscssssscscsscsssscsssssssscssscsscsssssssscsscssssssscccssccscssssscsssscssscsssssscssscsscscsscssscssssssssssssssscsscsssscsscscsscsscscssssssssssssccsscccsssssscsscsssssscsssscsssssssssssscsccsssccsscssssss" />
</svg>
